<?xml version="1.0" encoding="utf-8"?>
<!-- Generator: Adobe Illustrator 24.3.0, SVG Export Plug-In . SVG Version: 6.00 Build 0)  -->
<svg version="1.1" id="Capa_1" xmlns="http://www.w3.org/2000/svg" xmlns:xlink="http://www.w3.org/1999/xlink" x="0px" y="0px"
	 viewBox="0 0 612 792" style="enable-background:new 0 0 612 792;" xml:space="preserve">
<style type="text/css">
	.st0{fill:#FFFFFF;}
</style>
<path class="st0" d="M-348-555v318H960v-318H-348z"/>
<path class="st0" d="M855.76-497.55c-21.77,3.56-34.21,22.85-40,42.56c-7,24.7-8,50.56-6.09,76c0.98,14.21,2.74,28.45,7.43,42
	c8.05,23.27,26.14,42.49,52.66,38.7c21.94-3.13,34.87-22.7,40.57-42.7c10.43-36.89,11.05-80.46-1.24-117
	C901.02-481.98,883.21-501.87,855.76-497.55z M-8.24-494.99c2.92,5,5.74,9.42,7,15c2.97,11.8,1,26,1,38v91c0,11.64,2,25.71-1,37
	c-1.27,5-4.25,8.79-7,13h52c-2.54-4.59-5.68-8.86-7.07-14c-1.93-6.65-0.93-14.17-0.93-21v-36c16.99,10.07,19,27.81,21.58,46
	c0.85,6.17,0.2,20,5.93,24c2.85,2,8.19,1,11.49,1h30c-13.16-16.25-10.39-36.93-16.67-56c-3.48-10.55-9.55-20.9-21.33-23
	c7.92-4.34,14.61-8.42,19.96-16c3.62-5,6.23-10.95,7.89-17c6.15-22.85,6.8-59.83-15.85-74c-16-10-36.16-8.82-54-8
	C13.76-494.55,2.73-494.99-8.24-494.99z M221.76-494.99c2.92,5,5.74,9.42,7,15c2.97,11.8,1,26,1,38v91c0,11.64,2,25.71-1,37
	c-1.26,5-4.25,8.79-7,13h52c-2.55-4.59-5.68-8.86-7.07-14c-1.93-6.65-0.93-14.17-0.93-21v-36c16.99,10.07,19,27.81,21.58,46
	c0.85,6.17,0.2,20,5.93,24c2.85,2,8.19,1,11.49,1h30c-13.16-16.25-10.39-36.93-16.67-56c-3.48-10.55-9.55-20.9-21.33-23
	c7.92-4.34,14.61-8.42,19.96-16c3.62-5,6.23-10.95,7.89-17c6.16-22.85,6.81-59.83-15.84-74c-16-10-36.16-8.82-54-8
	C243.76-494.55,232.73-494.99,221.76-494.99z M-306.24-494.99c2.33,3.57,5,7,6.4,11c3.82,11.48,1.6,26.04,1.6,38v94
	c0,12.54,2.4,28-1.6,40c-1.4,4.1-4.07,7.43-6.4,11h92v-62c-2.78,5.64-4.63,11.61-8.09,17c-8.91,13.8-23.36,23.29-39.91,24v-114
	c0-14.67-3-32.89,1.44-47c1.37-4.47,4.13-8,6.56-12H-306.24z M-199.24-494.99c2.79,4.55,5.7,8.76,7,14c3.22,12,1,26.71,1,39v91
	c0,18.08,1.78,34.08-8,50h53c-10.18-15.61-8-32-8-50v-91c0-12.92-2.37-28.56,1.44-41c1.37-4.47,4.13-8,6.56-12H-199.24z
	 M-132.24-494.99c10.33,16,8,32.74,8,51v89c0,13.81,2.62,30.75-1.79,44c-1.34,4.02-4.21,7.35-6.21,11c6.51-1.55,13.34-1,20-1
	c23.51,0,53.33,4.34,72.99-11.52c19.69-15.88,21.45-52.71,12.01-74.48c-5-11.77-13.79-22-27-24c6.25-3.34,11.93-6,16.21-12
	c12.79-17.93,11.79-54.36-9.21-65.6c-11.81-6.27-26-6.4-39-6.4H-132.24z M113.76-494.99c10.33,16,8,32.74,8,51v95
	c0,14.32,4.36,36.76-8,47c7.64,3.21,19.73,1,28,1h64v-60c-3.42,5.08-5.49,11-9.04,16c-9.25,13.19-22.58,22.3-38.96,23v-77
	c12.93,0.27,26,3,34,14c1.98-4.72,1-10.92,1-16v-33c-10.31,9.49-21,13.71-35,14v-54c18.9,0,37.75,6,47,24c1.88-4.47,1-10.19,1-15
	v-30H113.76z M343.76-494.99c2.79,4.55,5.7,8.76,7,14c3.22,12,1,26.71,1,39v91c0,18.08,1.78,34.09-8,50h53c-10.18-15.61-8-32-8-50
	v-91c0-12.92-2.37-28.56,1.44-41c1.37-4.47,4.13-8,6.56-12H343.76z M439.76-494.99c1,3.67,2.59,7.17,2.91,11
	c1.09,15-4.29,32.3-7.1,47c-5.61,29.27-10.14,58.74-15.8,88c-2.83,14.62-2.67,36.78-15,47c4.21,1.77,9.46,1,14,1h29
	c-5-8.4-6.02-14.42-4.41-24l3.33-20c0.44-2.69,0.48-6.38,2.08-8.68c1.62-2.3,4.47-2.27,7-2.31c5.33-0.01,10.67-0.01,16,0
	c2.44,0.02,5.51-0.26,7.4,1.6c3.01,2.96,2.86,10.44,3.52,14.4c2.02,12.2,7.84,29.24-3.92,38c5.22,2.19,12.38,1,18,1h39
	c-12-13.3-12.57-30-15.8-47c-6.24-32.57-11.76-65.32-17.45-98c-2.81-16-9.05-33.36-1.75-49h-61.01V-494.99z M582.76-494.99v44
	c16.81-15.36,42.21-23.43,65-18c-21,36-35.26,76.3-43.4,117c-3.32,16.6-6.6,34.04-6.6,51h46c-1.29-10.2-3.11-20.7-3-31
	c0.42-31.98,8.58-63.65,18-94c6.92-22.17,20.51-45.42,21-69H582.76z M695.76-494.99v44c16.81-15.36,42.21-23.43,65-18
	c-21,36-35.26,76.3-43.4,117c-3.32,16.6-6.6,34.04-6.6,51h46c-1.29-10.2-3.11-20.7-3-31c0.42-31.98,8.58-63.65,18-94
	c6.92-22.17,20.51-45.42,21-69H695.76z"/>
<path class="st0" d="M855-474.24c-9.75,3.53-11.08,21.6-12.05,30.24c-3.38,30.11-3.38,62,0,92c0.92,8.22,2.05,17.76,6.41,25
	c2.21,3.68,6.08,7,10.62,5.24c9.77-3.53,11.02-21.6,12.02-30.24c3.43-30,3.43-61.89,0-92c-1-8.22-2.04-17.76-6.36-24.98
	C863.42-472.68,859.56-475.89,855-474.24z M-94-474v53c5.63,0,11.66-0.88,15.79-5c7.61-7.99,7.39-24,5.2-34
	c-0.99-3.84-2.14-7.9-5.2-10.57C-82.47-474.3-88.71-474-94-474z M30-474v84c25-5.8,28-34.45,25-56C53-460.84,46.5-473.66,30-474z
	 M260-474v84c25-5.8,28-34.45,25-56C283-460.84,276.5-473.66,260-474z M458-460c-1.17,27.33-8.57,55-12,82h25
	c-0.83-19.22-5.47-38.92-8.13-58C461.89-443,462.32-454.33,458-460z M-94-400v78c6.44,0,12.91-0.78,17.96-5.23
	C-67.8-334.48-66.02-346.61-66-357c0-15.22-0.73-35.5-18-41.25C-87.28-399.34-90.56-399.85-94-400z"/>
</svg>
